<svg width="48" height="48" viewBox="0 0 48 48" fill="none" xmlns="http://www.w3.org/2000/svg">
<rect width="48" height="48" fill="#E5E5E5"/>
<g clip-path="url(#clip0_0_1)">
<rect width="48" height="48" fill="#111111"/>
<path d="M24.0938 38C27.0625 38 29.4766 37.5859 31.3359 36.7578C33.1953 35.9141 34.5312 34.8281 35.3438 33.5C36.1562 32.1562 36.5625 30.6875 36.5625 29.0938C36.5625 28.0156 36.2812 26.9688 35.7188 25.9531C35.1562 24.9375 34.3281 24.0859 33.2344 23.3984C32.1406 22.7109 30.8281 22.3281 29.2969 22.25V22.0859C30.9844 21.4766 32.2109 20.5547 32.9766 19.3203C33.7422 18.0703 34.125 16.7422 34.125 15.3359C34.125 14.1016 33.7578 12.9688 33.0234 11.9375C32.3047 10.9062 31.1797 10.0859 29.6484 9.47656C28.1172 8.85156 26.1953 8.53906 23.8828 8.53906C22.0547 8.53906 20.2734 8.63281 18.5391 8.82031C16.8203 9.00781 14.7578 9.27344 12.3516 9.61719L12.1172 11.4219L16.125 12.125V35.1641L12.2109 36.2656L11.9531 38H24.0938ZM20.625 10.7188C21.3594 10.6094 21.9844 10.5547 22.5 10.5547C25.0938 10.5547 26.9453 11.1484 28.0547 12.3359C29.1641 13.5234 29.7188 14.9766 29.7188 16.6953C29.7188 18.0234 29.4609 19.1172 28.9453 19.9766C28.4453 20.8203 27.6875 21.4531 26.6719 21.875H20.625V10.7188ZM25.8516 23.8203C27.1484 23.8203 28.2578 24.1172 29.1797 24.7109C30.1016 25.2891 30.7969 26.0391 31.2656 26.9609C31.7344 27.8828 31.9688 28.8516 31.9688 29.8672C31.9688 30.8984 31.7266 31.8672 31.2422 32.7734C30.7734 33.6641 30.0703 34.3828 29.1328 34.9297C28.1953 35.4766 27.0781 35.75 25.7812 35.75H20.625V23.8203H25.8516Z" fill="white"/>
</g>
<defs>
<clipPath id="clip0_0_1">
<rect width="48" height="48" fill="white"/>
</clipPath>
</defs>
</svg>
